<svg xmlns="http://www.w3.org/2000/svg" xmlns:xlink="http://www.w3.org/1999/xlink" version="1.1" x="0px" y="0px" viewBox="0 0 100 125" enable-background="new 0 0 100 100" xml:space="preserve"><path d="M50,5C25.188,5,5.001,25.187,5.001,50S25.188,95,50,95s44.999-20.187,44.999-45S74.812,5,50,5z M13.522,50  c0-20.115,16.364-36.479,36.478-36.479S86.478,29.885,86.478,50c0,7.871-2.531,15.148-6.787,21.115  c-0.091,0.073-0.19,0.131-0.276,0.213C67.472,82.586,48.64,82.625,37.429,71.415c-4.316-4.316-6.692-10.054-6.692-16.156  c0-6.103,2.377-11.84,6.692-16.155C40.721,35.812,45.097,34,49.752,34c4.654,0,9.029,1.812,12.321,5.104  c2.472,2.472,3.833,5.76,3.833,9.255c0,3.496-1.361,6.782-3.833,9.255c-1.817,1.817-4.232,2.818-6.802,2.818  c-2.568,0-4.983-1.001-6.801-2.818c-2.372-2.372-2.665-6.191-0.681-8.883c1.395-1.895,0.989-4.563-0.905-5.958  c-1.894-1.396-4.564-0.991-5.958,0.905c-4.457,6.056-3.805,14.637,1.52,19.961c3.425,3.427,7.981,5.314,12.826,5.314  s9.4-1.887,12.827-5.313c4.083-4.082,6.33-9.508,6.33-15.28s-2.247-11.199-6.33-15.28c-4.9-4.901-11.416-7.6-18.346-7.6  s-13.446,2.699-18.348,7.599c-5.925,5.925-9.189,13.802-9.189,22.182c0,8.378,3.264,16.256,9.189,22.182  c4.072,4.071,8.93,6.955,14.13,8.735C27.524,83.963,13.522,68.6,13.522,50z"/><text x="0" y="115" fill="#000000" font-size="5px" font-weight="bold" font-family="'Helvetica Neue', Helvetica, Arial-Unicode, Arial, Sans-serif">Created by Juan Pablo Pérez Beltrán</text><text x="0" y="120" fill="#000000" font-size="5px" font-weight="bold" font-family="'Helvetica Neue', Helvetica, Arial-Unicode, Arial, Sans-serif">from the Noun Project</text></svg>